<?xml version="1.0" standalone="no"?>
<!DOCTYPE svg PUBLIC "-//W3C//DTD SVG 20010904//EN"
 "http://www.w3.org/TR/2001/REC-SVG-20010904/DTD/svg10.dtd">
<svg version="1.0" xmlns="http://www.w3.org/2000/svg"
 width="200.000000pt" height="200.000000pt" viewBox="0 0 200.000000 200.000000"
 preserveAspectRatio="xMidYMid meet">
<metadata>
Created by potrace 1.14, written by Peter Selinger 2001-2017
</metadata>
<g transform="translate(0.000000,200.000000) scale(0.100000,-0.100000)"
fill="#000000" stroke="none">
<path d="M217 1339 c-62 -10 -108 -37 -123 -75 -21 -51 -7 -58 77 -34 54 16
115 23 223 27 l148 6 -7 -24 c-34 -116 -214 -425 -377 -646 -34 -47 -41 -52
-67 -47 l-29 6 1 -50 c2 -36 5 -48 13 -41 7 6 28 2 58 -11 71 -32 224 -27 346
11 60 19 150 61 150 71 0 9 -76 2 -93 -9 -11 -7 -284 -12 -334 -6 -24 3 -43 8
-43 12 1 3 26 33 56 66 174 187 381 506 399 616 4 24 12 39 21 39 20 0 17 18
-3 24 -10 3 -26 21 -36 38 -18 31 -19 32 -33 14 -12 -18 -18 -18 -66 -8 -109
25 -206 32 -281 21z"/>
<path d="M893 1340 c-37 -15 -110 -95 -139 -152 -46 -91 -65 -173 -70 -303
-10 -293 99 -478 282 -479 104 0 184 57 245 176 85 168 89 413 9 583 -47 98
-98 142 -179 152 -98 11 -160 -48 -167 -160 l-3 -62 14 54 c17 68 51 103 102
106 98 7 174 -95 213 -286 46 -222 -14 -454 -133 -515 -61 -32 -163 0 -217 69
-136 173 -122 591 26 773 24 30 43 54 42 53 -2 0 -13 -4 -25 -9z"/>
<path d="M1530 1325 c-124 -87 -193 -273 -186 -500 5 -194 61 -324 169 -392
47 -30 132 -37 192 -16 141 48 247 280 231 507 -15 235 -104 379 -240 393 -96
10 -154 -47 -163 -160 -6 -64 2 -76 12 -20 12 74 53 123 101 123 91 0 164 -88
205 -248 73 -285 -27 -584 -191 -569 -61 6 -89 19 -129 58 -95 97 -137 296
-105 506 21 143 62 241 132 316 32 33 19 34 -28 2z"/>
</g>
</svg>
